<svg xmlns="http://www.w3.org/2000/svg" xmlns:xlink="http://www.w3.org/1999/xlink" width="500" zoomAndPan="magnify" viewBox="0 0 375 374.999991" height="500" preserveAspectRatio="xMidYMid meet" version="1.2"><defs><clipPath id="446521be2a"><path d="M 185 86.007812 L 190 86.007812 L 190 90 L 185 90 Z M 185 86.007812 "/></clipPath><clipPath id="cd5af4fd68"><path d="M 203 95 L 206.574219 95 L 206.574219 100 L 203 100 Z M 203 95 "/></clipPath><clipPath id="7d80860481"><path d="M 168.324219 95 L 172 95 L 172 100 L 168.324219 100 Z M 168.324219 95 "/></clipPath><clipPath id="ae5db1f055"><path d="M 170 90 L 205 90 L 205 116.757812 L 170 116.757812 Z M 170 90 "/></clipPath></defs><g id="91d548d69a"><rect x="0" width="375" y="0" height="374.999991" style="fill:#ffffff;fill-opacity:1;stroke:none;"/><rect x="0" width="375" y="0" height="374.999991" style="fill:#000000;fill-opacity:1;stroke:none;"/><g style="fill:#ffffff;fill-opacity:1;"><g transform="translate(146.029038, 210.448263)"><path style="stroke:none" d="M 79.71875 -21.609375 L 81.109375 -21.609375 C 77.296875 -15.171875 72.144531 -9.914062 65.65625 -5.84375 C 59.175781 -1.78125 51.953125 0.25 43.984375 0.25 C 38.140625 0.25 32.675781 -0.847656 27.59375 -3.046875 C 22.507812 -5.253906 18.035156 -8.304688 14.171875 -12.203125 C 10.316406 -16.097656 7.285156 -20.609375 5.078125 -25.734375 C 2.878906 -30.867188 1.78125 -36.359375 1.78125 -42.203125 C 1.78125 -48.054688 2.878906 -53.546875 5.078125 -58.671875 C 7.285156 -63.804688 10.316406 -68.300781 14.171875 -72.15625 C 18.035156 -76.007812 22.507812 -79.035156 27.59375 -81.234375 C 32.675781 -83.441406 38.140625 -84.546875 43.984375 -84.546875 C 50.847656 -84.546875 57.269531 -82.976562 63.25 -79.84375 C 69.226562 -76.707031 74.125 -72.640625 77.9375 -67.640625 L 77.9375 -58.609375 C 74.632812 -65.554688 70.207031 -71.210938 64.65625 -75.578125 C 59.101562 -79.941406 52.976562 -82.613281 46.28125 -83.59375 C 39.582031 -84.570312 32.757812 -83.363281 25.8125 -79.96875 C 18.769531 -76.664062 13.53125 -72.085938 10.09375 -66.234375 C 6.664062 -60.390625 4.953125 -53.925781 4.953125 -46.84375 C 4.953125 -39.769531 6.609375 -32.757812 9.921875 -25.8125 C 13.304688 -18.863281 17.773438 -13.179688 23.328125 -8.765625 C 28.878906 -4.359375 35.023438 -1.6875 41.765625 -0.75 C 48.503906 0.175781 55.304688 -1.015625 62.171875 -4.328125 C 66.328125 -6.359375 69.882812 -8.859375 72.84375 -11.828125 C 75.8125 -14.796875 78.101562 -18.054688 79.71875 -21.609375 Z M 79.71875 -21.609375 "/></g></g><g clip-rule="nonzero" clip-path="url(#446521be2a)"><path style=" stroke:none;fill-rule:nonzero;fill:#ffffff;fill-opacity:1;" d="M 189.203125 87.65625 C 189.203125 87.875 189.164062 88.085938 189.078125 88.289062 C 188.996094 88.492188 188.875 88.667969 188.722656 88.824219 C 188.566406 88.976562 188.386719 89.097656 188.1875 89.179688 C 187.984375 89.265625 187.773438 89.308594 187.554688 89.308594 C 187.335938 89.308594 187.125 89.265625 186.921875 89.179688 C 186.71875 89.097656 186.542969 88.976562 186.386719 88.824219 C 186.234375 88.667969 186.113281 88.492188 186.03125 88.289062 C 185.945312 88.085938 185.902344 87.875 185.902344 87.65625 C 185.902344 87.4375 185.945312 87.226562 186.03125 87.023438 C 186.113281 86.824219 186.234375 86.644531 186.386719 86.488281 C 186.542969 86.335938 186.71875 86.214844 186.921875 86.132812 C 187.125 86.046875 187.335938 86.007812 187.554688 86.007812 C 187.773438 86.007812 187.984375 86.046875 188.1875 86.132812 C 188.386719 86.214844 188.566406 86.335938 188.722656 86.488281 C 188.875 86.644531 188.996094 86.824219 189.078125 87.023438 C 189.164062 87.226562 189.203125 87.4375 189.203125 87.65625 Z M 189.203125 87.65625 "/></g><g clip-rule="nonzero" clip-path="url(#cd5af4fd68)"><path style=" stroke:none;fill-rule:nonzero;fill:#ffffff;fill-opacity:1;" d="M 206.574219 97.507812 C 206.574219 97.726562 206.53125 97.9375 206.445312 98.140625 C 206.363281 98.339844 206.246094 98.519531 206.089844 98.675781 C 205.933594 98.828125 205.757812 98.949219 205.554688 99.03125 C 205.351562 99.117188 205.140625 99.15625 204.921875 99.15625 C 204.703125 99.15625 204.492188 99.117188 204.289062 99.03125 C 204.089844 98.949219 203.910156 98.828125 203.753906 98.675781 C 203.601562 98.519531 203.480469 98.339844 203.398438 98.140625 C 203.3125 97.9375 203.273438 97.726562 203.273438 97.507812 C 203.273438 97.289062 203.3125 97.078125 203.398438 96.875 C 203.480469 96.671875 203.601562 96.496094 203.753906 96.339844 C 203.910156 96.1875 204.089844 96.066406 204.289062 95.984375 C 204.492188 95.898438 204.703125 95.855469 204.921875 95.855469 C 205.140625 95.855469 205.351562 95.898438 205.554688 95.984375 C 205.757812 96.066406 205.933594 96.1875 206.089844 96.339844 C 206.246094 96.496094 206.363281 96.671875 206.445312 96.875 C 206.53125 97.078125 206.574219 97.289062 206.574219 97.507812 Z M 206.574219 97.507812 "/></g><g clip-rule="nonzero" clip-path="url(#7d80860481)"><path style=" stroke:none;fill-rule:nonzero;fill:#ffffff;fill-opacity:1;" d="M 171.628906 97.507812 C 171.628906 97.726562 171.585938 97.9375 171.503906 98.140625 C 171.417969 98.339844 171.300781 98.519531 171.144531 98.675781 C 170.988281 98.828125 170.8125 98.949219 170.609375 99.03125 C 170.40625 99.117188 170.195312 99.15625 169.976562 99.15625 C 169.757812 99.15625 169.546875 99.117188 169.347656 99.03125 C 169.144531 98.949219 168.964844 98.828125 168.808594 98.675781 C 168.65625 98.519531 168.535156 98.339844 168.453125 98.140625 C 168.367188 97.9375 168.328125 97.726562 168.328125 97.507812 C 168.328125 97.289062 168.367188 97.078125 168.453125 96.875 C 168.535156 96.671875 168.65625 96.496094 168.808594 96.339844 C 168.964844 96.1875 169.144531 96.066406 169.347656 95.984375 C 169.546875 95.898438 169.757812 95.855469 169.976562 95.855469 C 170.195312 95.855469 170.40625 95.898438 170.609375 95.984375 C 170.8125 96.066406 170.988281 96.1875 171.144531 96.339844 C 171.300781 96.496094 171.417969 96.671875 171.503906 96.875 C 171.585938 97.078125 171.628906 97.289062 171.628906 97.507812 Z M 171.628906 97.507812 "/></g><path style=" stroke:none;fill-rule:nonzero;fill:#ffffff;fill-opacity:1;" d="M 196.421875 99.945312 C 196.421875 100.117188 196.386719 100.285156 196.320312 100.441406 C 196.257812 100.601562 196.164062 100.742188 196.039062 100.863281 C 195.917969 100.984375 195.777344 101.078125 195.621094 101.144531 C 195.460938 101.210938 195.296875 101.242188 195.125 101.242188 C 194.953125 101.242188 194.785156 101.210938 194.628906 101.144531 C 194.46875 101.078125 194.328125 100.984375 194.207031 100.863281 C 194.085938 100.742188 193.992188 100.601562 193.925781 100.441406 C 193.859375 100.285156 193.828125 100.117188 193.828125 99.945312 C 193.828125 99.773438 193.859375 99.609375 193.925781 99.449219 C 193.992188 99.289062 194.085938 99.148438 194.207031 99.027344 C 194.328125 98.90625 194.46875 98.8125 194.628906 98.746094 C 194.785156 98.683594 194.953125 98.648438 195.125 98.648438 C 195.296875 98.648438 195.460938 98.683594 195.621094 98.746094 C 195.777344 98.8125 195.917969 98.90625 196.039062 99.027344 C 196.164062 99.148438 196.257812 99.289062 196.320312 99.449219 C 196.386719 99.609375 196.421875 99.773438 196.421875 99.945312 Z M 196.421875 99.945312 "/><path style=" stroke:none;fill-rule:nonzero;fill:#ffffff;fill-opacity:1;" d="M 181.046875 99.714844 C 181.046875 99.886719 181.015625 100.050781 180.949219 100.210938 C 180.882812 100.371094 180.789062 100.511719 180.667969 100.632812 C 180.546875 100.753906 180.40625 100.847656 180.246094 100.914062 C 180.085938 100.980469 179.921875 101.011719 179.75 101.011719 C 179.578125 101.011719 179.414062 100.980469 179.253906 100.914062 C 179.09375 100.847656 178.953125 100.753906 178.832031 100.632812 C 178.710938 100.511719 178.617188 100.371094 178.550781 100.210938 C 178.484375 100.050781 178.453125 99.886719 178.453125 99.714844 C 178.453125 99.542969 178.484375 99.375 178.550781 99.21875 C 178.617188 99.058594 178.710938 98.917969 178.832031 98.796875 C 178.953125 98.675781 179.09375 98.582031 179.253906 98.515625 C 179.414062 98.449219 179.578125 98.417969 179.75 98.417969 C 179.921875 98.417969 180.085938 98.449219 180.246094 98.515625 C 180.40625 98.582031 180.546875 98.675781 180.667969 98.796875 C 180.789062 98.917969 180.882812 99.058594 180.949219 99.21875 C 181.015625 99.375 181.046875 99.542969 181.046875 99.714844 Z M 181.046875 99.714844 "/><g clip-rule="nonzero" clip-path="url(#ae5db1f055)"><path style=" stroke:none;fill-rule:nonzero;fill:#ffffff;fill-opacity:1;" d="M 204.125 100.265625 L 203.855469 100.625 L 198.371094 107.992188 C 197.695312 108.898438 196.753906 109.53125 195.707031 109.832031 L 195.125 102.003906 C 195.109375 101.792969 194.851562 101.742188 194.773438 101.9375 L 191.832031 109.351562 C 190.894531 108.730469 190.234375 107.734375 190.050781 106.578125 L 187.871094 92.722656 L 187.878906 92.671875 L 187.46875 90.144531 L 184.882812 106.578125 C 184.699219 107.734375 184.039062 108.730469 183.101562 109.351562 L 180.160156 101.9375 C 180.082031 101.742188 179.824219 101.792969 179.808594 102.003906 L 179.226562 109.859375 C 178.1875 109.558594 177.253906 108.925781 176.585938 108.027344 L 171.101562 100.660156 L 170.832031 100.300781 C 170.679688 100.09375 170.355469 100.253906 170.421875 100.5 L 174.324219 114.351562 L 174.703125 115.710938 L 174.71875 115.761719 C 174.730469 115.800781 174.742188 115.835938 174.757812 115.875 C 174.761719 115.882812 174.765625 115.894531 174.769531 115.90625 C 174.78125 115.929688 174.792969 115.957031 174.804688 115.980469 C 174.808594 115.992188 174.816406 116.003906 174.824219 116.015625 C 174.835938 116.039062 174.847656 116.058594 174.859375 116.082031 C 174.867188 116.09375 174.875 116.105469 174.882812 116.117188 C 174.898438 116.136719 174.910156 116.15625 174.925781 116.175781 C 174.933594 116.1875 174.941406 116.199219 174.953125 116.210938 C 174.964844 116.226562 174.980469 116.246094 174.996094 116.261719 C 175.007812 116.273438 175.015625 116.285156 175.027344 116.292969 C 175.042969 116.3125 175.0625 116.328125 175.078125 116.34375 C 175.089844 116.351562 175.097656 116.363281 175.109375 116.371094 C 175.128906 116.390625 175.152344 116.40625 175.171875 116.421875 C 175.179688 116.425781 175.1875 116.433594 175.199219 116.441406 C 175.226562 116.460938 175.257812 116.480469 175.289062 116.5 C 175.300781 116.503906 175.308594 116.507812 175.316406 116.515625 C 175.339844 116.527344 175.363281 116.539062 175.386719 116.550781 C 175.402344 116.558594 175.417969 116.5625 175.429688 116.570312 C 175.449219 116.578125 175.46875 116.585938 175.488281 116.59375 C 175.507812 116.597656 175.523438 116.605469 175.539062 116.609375 C 175.558594 116.617188 175.578125 116.621094 175.59375 116.625 C 175.613281 116.632812 175.632812 116.636719 175.648438 116.640625 C 175.667969 116.644531 175.683594 116.648438 175.703125 116.652344 C 175.722656 116.652344 175.742188 116.65625 175.761719 116.660156 C 175.777344 116.660156 175.796875 116.664062 175.8125 116.664062 C 175.832031 116.667969 175.855469 116.667969 175.875 116.667969 C 175.890625 116.667969 175.90625 116.644531 175.921875 116.644531 C 175.945312 116.644531 175.96875 116.621094 175.988281 116.621094 C 175.992188 116.621094 175.992188 116.621094 175.992188 116.621094 C 176.007812 116.621094 176.019531 116.640625 176.03125 116.640625 C 176.054688 116.636719 176.078125 116.648438 176.101562 116.644531 C 176.140625 116.636719 176.179688 116.636719 176.21875 116.625 C 178.472656 116.0625 183.535156 114.921875 187.464844 114.921875 C 191.398438 114.921875 196.460938 116.066406 198.714844 116.628906 C 198.753906 116.640625 198.792969 116.648438 198.832031 116.65625 C 198.855469 116.660156 198.878906 116.636719 198.902344 116.640625 C 198.914062 116.640625 198.925781 116.621094 198.941406 116.621094 C 198.964844 116.621094 198.988281 116.644531 199.011719 116.644531 C 199.027344 116.644531 199.042969 116.65625 199.058594 116.65625 C 199.078125 116.65625 199.097656 116.660156 199.121094 116.660156 C 199.136719 116.65625 199.15625 116.660156 199.171875 116.65625 C 199.191406 116.652344 199.210938 116.652344 199.230469 116.648438 C 199.25 116.644531 199.265625 116.644531 199.285156 116.640625 C 199.300781 116.636719 199.320312 116.632812 199.335938 116.625 C 199.355469 116.621094 199.375 116.617188 199.394531 116.609375 C 199.410156 116.605469 199.425781 116.597656 199.441406 116.59375 C 199.464844 116.585938 199.484375 116.578125 199.503906 116.570312 C 199.515625 116.5625 199.53125 116.558594 199.546875 116.550781 C 199.570312 116.539062 199.59375 116.527344 199.617188 116.515625 C 199.625 116.507812 199.632812 116.503906 199.644531 116.5 C 199.675781 116.480469 199.707031 116.460938 199.734375 116.441406 C 199.746094 116.433594 199.753906 116.425781 199.761719 116.421875 C 199.78125 116.40625 199.804688 116.390625 199.824219 116.371094 C 199.835938 116.363281 199.84375 116.351562 199.855469 116.34375 C 199.871094 116.328125 199.890625 116.3125 199.90625 116.292969 C 199.917969 116.285156 199.925781 116.273438 199.9375 116.261719 C 199.953125 116.246094 199.96875 116.226562 199.980469 116.210938 C 199.992188 116.199219 200 116.1875 200.007812 116.175781 C 200.023438 116.15625 200.035156 116.136719 200.050781 116.117188 C 200.058594 116.105469 200.066406 116.09375 200.074219 116.082031 C 200.085938 116.058594 200.097656 116.039062 200.109375 116.015625 C 200.117188 116.003906 200.125 115.992188 200.128906 115.980469 C 200.140625 115.957031 200.152344 115.929688 200.164062 115.90625 C 200.167969 115.894531 200.171875 115.882812 200.175781 115.875 C 200.191406 115.835938 200.203125 115.800781 200.214844 115.761719 L 200.230469 115.710938 L 200.609375 114.351562 L 204.445312 100.730469 L 204.445312 100.726562 L 204.46875 100.695312 L 204.535156 100.46875 C 204.605469 100.21875 204.277344 100.058594 204.125 100.265625 Z M 204.125 100.265625 "/></g><g style="fill:#ffffff;fill-opacity:1;"><g transform="translate(108.283687, 264.257457)"><path style="stroke:none" d="M 3.453125 -4.46875 L 3.453125 0 L 1.578125 0 L 1.578125 -13.796875 L 6.265625 -13.796875 C 8.222656 -13.796875 9.617188 -13.441406 10.453125 -12.734375 C 11.296875 -12.035156 11.71875 -10.882812 11.71875 -9.28125 C 11.71875 -7.65625 11.28125 -6.445312 10.40625 -5.65625 C 9.53125 -4.863281 8.175781 -4.46875 6.34375 -4.46875 Z M 9.828125 -9.28125 C 9.828125 -10.289062 9.550781 -11.007812 9 -11.4375 C 8.457031 -11.875 7.546875 -12.09375 6.265625 -12.09375 L 3.453125 -12.09375 L 3.453125 -6.109375 L 6.265625 -6.109375 C 7.546875 -6.109375 8.457031 -6.359375 9 -6.859375 C 9.550781 -7.359375 9.828125 -8.164062 9.828125 -9.28125 Z M 9.828125 -9.28125 "/></g></g><g style="fill:#ffffff;fill-opacity:1;"><g transform="translate(122.493472, 264.257457)"><path style="stroke:none" d="M 2.15625 0 L 0.171875 0 L 5.625 -13.796875 L 7.5625 -13.796875 L 12.953125 0 L 10.984375 0 L 9.71875 -3.328125 L 3.40625 -3.328125 Z M 6.5625 -12.078125 C 6.414062 -11.566406 6.238281 -11.023438 6.03125 -10.453125 C 5.832031 -9.878906 5.632812 -9.304688 5.4375 -8.734375 L 4.03125 -4.96875 L 9.109375 -4.96875 L 7.703125 -8.734375 C 7.410156 -9.535156 7.175781 -10.1875 7 -10.6875 C 6.832031 -11.1875 6.6875 -11.648438 6.5625 -12.078125 Z M 6.5625 -12.078125 "/></g></g><g style="fill:#ffffff;fill-opacity:1;"><g transform="translate(137.473124, 264.257457)"><path style="stroke:none" d="M 4.109375 0 L 0.28125 -13.796875 L 2.3125 -13.796875 L 4.59375 -5.0625 C 4.65625 -4.820312 4.71875 -4.546875 4.78125 -4.234375 C 4.851562 -3.921875 5.003906 -3.109375 5.234375 -1.796875 C 5.492188 -3.140625 5.660156 -3.960938 5.734375 -4.265625 C 5.816406 -4.578125 5.882812 -4.84375 5.9375 -5.0625 L 8.453125 -13.796875 L 10.40625 -13.796875 L 12.9375 -5.0625 C 13 -4.84375 13.066406 -4.582031 13.140625 -4.28125 C 13.210938 -3.988281 13.378906 -3.175781 13.640625 -1.84375 C 13.796875 -2.738281 13.929688 -3.453125 14.046875 -3.984375 C 14.160156 -4.523438 14.238281 -4.882812 14.28125 -5.0625 L 16.546875 -13.796875 L 18.5 -13.796875 L 14.671875 0 L 12.5625 0 L 10.34375 -7.390625 C 10.175781 -7.929688 10.019531 -8.507812 9.875 -9.125 C 9.726562 -9.738281 9.566406 -10.472656 9.390625 -11.328125 C 9.210938 -10.472656 9.050781 -9.738281 8.90625 -9.125 C 8.757812 -8.507812 8.609375 -7.929688 8.453125 -7.390625 L 6.25 0 Z M 4.109375 0 "/></g></g><g style="fill:#ffffff;fill-opacity:1;"><g transform="translate(158.083771, 264.257457)"><path style="stroke:none" d="M 2.15625 0 L 0.171875 0 L 5.625 -13.796875 L 7.5625 -13.796875 L 12.953125 0 L 10.984375 0 L 9.71875 -3.328125 L 3.40625 -3.328125 Z M 6.5625 -12.078125 C 6.414062 -11.566406 6.238281 -11.023438 6.03125 -10.453125 C 5.832031 -9.878906 5.632812 -9.304688 5.4375 -8.734375 L 4.03125 -4.96875 L 9.109375 -4.96875 L 7.703125 -8.734375 C 7.410156 -9.535156 7.175781 -10.1875 7 -10.6875 C 6.832031 -11.1875 6.6875 -11.648438 6.5625 -12.078125 Z M 6.5625 -12.078125 "/></g></g><g style="fill:#ffffff;fill-opacity:1;"><g transform="translate(173.063423, 264.257457)"><path style="stroke:none" d="M 12.875 -13.796875 L 12.875 0 L 10.984375 0 L 3.34375 -10.734375 L 3.34375 0 L 1.578125 0 L 1.578125 -13.796875 L 3.46875 -13.796875 L 11.109375 -2.90625 L 11.109375 -13.796875 Z M 12.875 -13.796875 "/></g></g><g style="fill:#ffffff;fill-opacity:1;"><g transform="translate(189.340845, 264.257457)"><path style="stroke:none" d=""/></g></g><g style="fill:#ffffff;fill-opacity:1;"><g transform="translate(194.928171, 264.257457)"><path style="stroke:none" d="M 3.453125 -4.953125 L 3.453125 0 L 1.578125 0 L 1.578125 -13.796875 L 6.265625 -13.796875 C 8.222656 -13.796875 9.617188 -13.460938 10.453125 -12.796875 C 11.296875 -12.128906 11.71875 -11.023438 11.71875 -9.484375 C 11.71875 -8.273438 11.453125 -7.316406 10.921875 -6.609375 C 10.390625 -5.898438 9.578125 -5.421875 8.484375 -5.171875 L 12.09375 0 L 9.859375 0 L 6.515625 -4.953125 Z M 9.828125 -9.484375 C 9.828125 -10.421875 9.554688 -11.085938 9.015625 -11.484375 C 8.472656 -11.890625 7.554688 -12.09375 6.265625 -12.09375 L 3.453125 -12.09375 L 3.453125 -6.59375 L 6.265625 -6.59375 C 7.523438 -6.59375 8.429688 -6.820312 8.984375 -7.28125 C 9.546875 -7.738281 9.828125 -8.472656 9.828125 -9.484375 Z M 9.828125 -9.484375 "/></g></g><g style="fill:#ffffff;fill-opacity:1;"><g transform="translate(209.489896, 264.257457)"><path style="stroke:none" d="M 2.15625 0 L 0.171875 0 L 5.625 -13.796875 L 7.5625 -13.796875 L 12.953125 0 L 10.984375 0 L 9.71875 -3.328125 L 3.40625 -3.328125 Z M 6.5625 -12.078125 C 6.414062 -11.566406 6.238281 -11.023438 6.03125 -10.453125 C 5.832031 -9.878906 5.632812 -9.304688 5.4375 -8.734375 L 4.03125 -4.96875 L 9.109375 -4.96875 L 7.703125 -8.734375 C 7.410156 -9.535156 7.175781 -10.1875 7 -10.6875 C 6.832031 -11.1875 6.6875 -11.648438 6.5625 -12.078125 Z M 6.5625 -12.078125 "/></g></g><g style="fill:#ffffff;fill-opacity:1;"><g transform="translate(224.469547, 264.257457)"><path style="stroke:none" d="M 10.609375 -5.5 L 10.609375 -13.796875 L 12.46875 -13.796875 L 12.46875 -5.5 C 12.46875 -3.5625 12.015625 -2.128906 11.109375 -1.203125 C 10.210938 -0.285156 8.820312 0.171875 6.9375 0.171875 C 5.019531 0.171875 3.625 -0.273438 2.75 -1.171875 C 1.882812 -2.078125 1.453125 -3.519531 1.453125 -5.5 L 1.453125 -13.796875 L 3.328125 -13.796875 L 3.328125 -5.5 C 3.328125 -4.050781 3.59375 -3.035156 4.125 -2.453125 C 4.65625 -1.867188 5.59375 -1.578125 6.9375 -1.578125 C 8.28125 -1.578125 9.226562 -1.867188 9.78125 -2.453125 C 10.332031 -3.035156 10.609375 -4.050781 10.609375 -5.5 Z M 10.609375 -5.5 "/></g></g><g style="fill:#ffffff;fill-opacity:1;"><g transform="translate(240.219065, 264.257457)"><path style="stroke:none" d="M 10.03125 -1.765625 L 10.03125 0 L 1.578125 0 L 1.578125 -13.796875 L 3.453125 -13.796875 L 3.453125 -1.765625 Z M 10.03125 -1.765625 "/></g></g><g style="fill:#ffffff;fill-opacity:1;"><g transform="translate(252.42721, 264.257457)"><path style="stroke:none" d="M 13.28125 -6.9375 C 13.28125 -4.425781 12.800781 -2.613281 11.84375 -1.5 C 10.882812 -0.382812 9.320312 0.171875 7.15625 0.171875 C 4.820312 0.171875 3.207031 -0.34375 2.3125 -1.375 C 1.425781 -2.40625 0.984375 -4.257812 0.984375 -6.9375 C 0.984375 -9.425781 1.46875 -11.226562 2.4375 -12.34375 C 3.40625 -13.457031 4.976562 -14.015625 7.15625 -14.015625 C 9.476562 -14.015625 11.078125 -13.492188 11.953125 -12.453125 C 12.835938 -11.421875 13.28125 -9.582031 13.28125 -6.9375 Z M 3.546875 -2.953125 C 3.816406 -2.453125 4.222656 -2.097656 4.765625 -1.890625 C 5.316406 -1.679688 6.113281 -1.578125 7.15625 -1.578125 C 8.78125 -1.578125 9.890625 -1.96875 10.484375 -2.75 C 11.085938 -3.539062 11.390625 -4.9375 11.390625 -6.9375 C 11.390625 -7.925781 11.335938 -8.738281 11.234375 -9.375 C 11.140625 -10.019531 10.984375 -10.539062 10.765625 -10.9375 C 10.484375 -11.4375 10.070312 -11.789062 9.53125 -12 C 9 -12.207031 8.207031 -12.3125 7.15625 -12.3125 C 5.507812 -12.3125 4.382812 -11.914062 3.78125 -11.125 C 3.175781 -10.332031 2.875 -8.9375 2.875 -6.9375 C 2.875 -5.9375 2.925781 -5.113281 3.03125 -4.46875 C 3.132812 -3.832031 3.304688 -3.328125 3.546875 -2.953125 Z M 3.546875 -2.953125 "/></g></g><g style="fill:#000000;fill-opacity:1;"><g transform="translate(167.020585, 230.333891)"><path style="stroke:none" d="M 16.5625 -34.375 L 8.460938 -34.375 L 8.460938 -38.839844 L 12.925781 -38.839844 L 12.925781 -10.84375 C 12.925781 -8.234375 13.070312 -6.296875 13.355469 -5.03125 C 13.5 -4.382812 13.640625 -3.863281 13.769531 -3.46875 C 13.816406 -3.332031 13.855469 -3.222656 13.890625 -3.144531 L 13.894531 -3.132812 C 13.878906 -3.167969 13.855469 -3.207031 13.824219 -3.25 L 18.789062 4.46875 L -7.015625 4.46875 L -1.371094 -3.429688 C -1.425781 -3.355469 -1.460938 -3.300781 -1.476562 -3.265625 C -1.449219 -3.328125 -1.414062 -3.417969 -1.371094 -3.539062 C -1.238281 -3.910156 -1.105469 -4.40625 -0.964844 -5.03125 C -0.679688 -6.296875 -0.535156 -8.234375 -0.535156 -10.84375 L -0.535156 -68.152344 C -0.535156 -70.121094 -0.609375 -71.734375 -0.757812 -72.988281 C -0.871094 -73.933594 -0.992188 -74.546875 -1.121094 -74.820312 C -1.417969 -75.449219 -1.648438 -75.914062 -1.8125 -76.207031 C -1.835938 -76.253906 -1.855469 -76.289062 -1.871094 -76.316406 C -1.867188 -76.308594 -1.859375 -76.292969 -1.839844 -76.269531 C -1.476562 -75.742188 -0.976562 -75.320312 -0.332031 -74.996094 L 1.667969 -83.460938 L 25.734375 -83.460938 C 30.597656 -83.460938 35.0625 -82.398438 39.125 -80.269531 C 43.21875 -78.128906 46.492188 -75.207031 48.941406 -71.511719 C 51.460938 -67.707031 52.722656 -63.449219 52.722656 -58.738281 C 52.722656 -54.179688 51.457031 -50.011719 48.925781 -46.242188 C 46.476562 -42.59375 43.210938 -39.703125 39.125 -37.5625 C 35.0625 -35.4375 30.597656 -34.375 25.734375 -34.375 L 21.683594 -34.375 L 21.683594 -38.839844 L 22.5 -43.234375 C 26.730469 -42.445312 30.207031 -40.847656 32.929688 -38.429688 C 35.421875 -36.21875 37.488281 -33.617188 39.128906 -30.621094 C 40.578125 -27.964844 41.925781 -25.230469 43.167969 -22.414062 C 44.242188 -20.039062 45.378906 -17.671875 46.578125 -15.308594 C 47.625 -13.25 48.882812 -11.417969 50.355469 -9.808594 C 51.6875 -8.359375 53.359375 -7.183594 55.375 -6.285156 C 57.378906 -5.390625 60.007812 -4.945312 63.265625 -4.945312 L 67.734375 -4.945312 L 67.734375 4.46875 L 63.265625 4.46875 C 56.792969 4.46875 51.464844 3.46875 47.28125 1.46875 C 43.058594 -0.546875 39.699219 -3.191406 37.199219 -6.460938 C 34.933594 -9.421875 33.015625 -12.601562 31.449219 -16 C 30.304688 -18.617188 29.210938 -21.167969 28.167969 -23.648438 C 27.230469 -25.886719 26.191406 -27.914062 25.046875 -29.734375 C 24.136719 -31.1875 22.992188 -32.347656 21.617188 -33.21875 C 20.402344 -33.988281 18.714844 -34.375 16.5625 -34.375 Z M 16.5625 -43.308594 C 20.441406 -43.308594 23.722656 -42.464844 26.398438 -40.769531 C 28.914062 -39.179688 30.988281 -37.082031 32.617188 -34.484375 C 34.019531 -32.253906 35.28125 -29.792969 36.410156 -27.105469 C 37.433594 -24.664062 38.484375 -22.210938 39.5625 -19.742188 C 40.855469 -16.945312 42.433594 -14.328125 44.296875 -11.886719 C 45.925781 -9.757812 48.207031 -7.992188 51.132812 -6.59375 C 54.097656 -5.175781 58.144531 -4.46875 63.265625 -4.46875 L 63.265625 0 L 58.796875 0 L 58.796875 -0.476562 L 63.265625 -0.476562 L 63.265625 3.992188 C 58.738281 3.992188 54.894531 3.285156 51.734375 1.875 C 48.589844 0.472656 45.933594 -1.410156 43.769531 -3.773438 C 41.746094 -5.980469 40.027344 -8.476562 38.609375 -11.261719 C 37.347656 -13.742188 36.140625 -16.261719 34.992188 -18.808594 C 33.851562 -21.394531 32.617188 -23.902344 31.289062 -26.332031 C 30.144531 -28.417969 28.71875 -30.222656 27 -31.746094 C 25.515625 -33.0625 23.46875 -33.964844 20.867188 -34.449219 L 21.683594 -43.308594 L 25.734375 -43.308594 C 29.132812 -43.308594 32.214844 -44.03125 34.984375 -45.480469 C 37.726562 -46.917969 39.902344 -48.832031 41.503906 -51.21875 C 43.027344 -53.484375 43.785156 -55.992188 43.785156 -58.738281 C 43.785156 -61.652344 43.019531 -64.265625 41.492188 -66.578125 C 39.886719 -68.996094 37.71875 -70.921875 34.984375 -72.355469 C 32.214844 -73.800781 29.132812 -74.523438 25.734375 -74.523438 L 1.667969 -74.523438 L 1.667969 -78.992188 L 3.667969 -82.988281 C 4.574219 -82.535156 5.355469 -81.714844 6.011719 -80.527344 C 6.265625 -80.070312 6.582031 -79.4375 6.960938 -78.636719 C 7.917969 -76.605469 8.398438 -73.109375 8.398438 -68.152344 L 8.398438 -10.84375 C 8.398438 -7.574219 8.183594 -4.980469 7.753906 -3.070312 C 7.265625 -0.894531 6.648438 0.71875 5.898438 1.761719 L 5.304688 2.597656 L 1.667969 0 L 1.667969 -4.46875 L 10.605469 -4.46875 L 10.605469 0 L 6.84375 2.417969 L 6.308594 1.582031 C 5.667969 0.582031 5.109375 -0.96875 4.636719 -3.070312 C 4.207031 -4.980469 3.992188 -7.574219 3.992188 -10.84375 L 3.992188 -43.308594 Z M 23.828125 -74.046875 L 8.460938 -74.046875 L 8.460938 -78.515625 L 12.925781 -78.515625 L 12.925781 -39.316406 L 8.460938 -39.316406 L 8.460938 -43.785156 L 23.828125 -43.785156 C 27.035156 -43.785156 29.785156 -44.496094 32.082031 -45.917969 C 34.433594 -47.371094 36.230469 -49.242188 37.484375 -51.527344 C 38.746094 -53.839844 39.378906 -56.242188 39.378906 -58.738281 C 39.378906 -61.472656 38.746094 -63.996094 37.484375 -66.304688 C 36.230469 -68.59375 34.433594 -70.464844 32.082031 -71.917969 C 29.785156 -73.335938 27.035156 -74.046875 23.828125 -74.046875 Z M 23.828125 -82.984375 C 28.726562 -82.984375 33.042969 -81.828125 36.78125 -79.515625 C 40.46875 -77.234375 43.316406 -74.261719 45.324219 -70.59375 C 47.316406 -66.945312 48.3125 -62.996094 48.3125 -58.738281 C 48.3125 -54.722656 47.316406 -50.890625 45.324219 -47.242188 C 43.316406 -43.574219 40.46875 -40.597656 36.78125 -38.316406 C 33.042969 -36.003906 28.726562 -34.851562 23.828125 -34.851562 L 3.992188 -34.851562 L 3.992188 -82.984375 Z M 23.828125 -82.984375 "/></g></g><g style="fill:#ffffff;fill-opacity:1;"><g transform="translate(167.020585, 230.333891)"><path style="stroke:none" d="M 16.5625 -38.84375 L 8.453125 -38.84375 L 8.453125 -10.84375 C 8.453125 -7.90625 8.628906 -5.640625 8.984375 -4.046875 C 9.347656 -2.460938 9.707031 -1.390625 10.0625 -0.828125 C 10.425781 -0.273438 10.609375 0 10.609375 0 L 1.671875 0 C 1.671875 0 1.867188 -0.273438 2.265625 -0.828125 C 2.660156 -1.390625 3.035156 -2.460938 3.390625 -4.046875 C 3.753906 -5.640625 3.9375 -7.90625 3.9375 -10.84375 L 3.9375 -68.15625 C 3.9375 -72.4375 3.597656 -75.289062 2.921875 -76.71875 C 2.242188 -78.15625 1.828125 -78.910156 1.671875 -78.984375 L 25.734375 -78.984375 C 29.867188 -78.984375 33.640625 -78.085938 37.046875 -76.296875 C 40.460938 -74.515625 43.179688 -72.09375 45.203125 -69.03125 C 47.234375 -65.976562 48.25 -62.546875 48.25 -58.734375 C 48.25 -55.078125 47.234375 -51.738281 45.203125 -48.71875 C 43.179688 -45.707031 40.460938 -43.304688 37.046875 -41.515625 C 33.640625 -39.734375 29.867188 -38.84375 25.734375 -38.84375 L 21.6875 -38.84375 C 25.101562 -38.207031 27.863281 -36.953125 29.96875 -35.078125 C 32.070312 -33.210938 33.816406 -31.007812 35.203125 -28.46875 C 36.597656 -25.925781 37.890625 -23.304688 39.078125 -20.609375 C 40.191406 -18.148438 41.363281 -15.707031 42.59375 -13.28125 C 43.820312 -10.863281 45.3125 -8.703125 47.0625 -6.796875 C 48.8125 -4.890625 50.972656 -3.359375 53.546875 -2.203125 C 56.128906 -1.054688 59.367188 -0.484375 63.265625 -0.484375 L 63.265625 0 C 57.460938 0 52.773438 -0.851562 49.203125 -2.5625 C 45.628906 -4.269531 42.8125 -6.472656 40.75 -9.171875 C 38.6875 -11.867188 36.9375 -14.769531 35.5 -17.875 C 34.394531 -20.414062 33.320312 -22.914062 32.28125 -25.375 C 31.25 -27.84375 30.097656 -30.085938 28.828125 -32.109375 C 27.554688 -34.128906 25.945312 -35.753906 24 -36.984375 C 22.0625 -38.222656 19.582031 -38.84375 16.5625 -38.84375 Z M 23.828125 -78.515625 L 8.453125 -78.515625 L 8.453125 -39.3125 L 23.828125 -39.3125 C 27.878906 -39.3125 31.410156 -40.242188 34.421875 -42.109375 C 37.441406 -43.984375 39.765625 -46.410156 41.390625 -49.390625 C 43.023438 -52.367188 43.84375 -55.484375 43.84375 -58.734375 C 43.84375 -62.234375 43.023438 -65.472656 41.390625 -68.453125 C 39.765625 -71.429688 37.441406 -73.851562 34.421875 -75.71875 C 31.410156 -77.582031 27.878906 -78.515625 23.828125 -78.515625 Z M 23.828125 -78.515625 "/></g></g></g></svg>